<mxfile host="Electron" modified="2024-03-19T17:22:59.729Z" agent="Mozilla/5.0 (X11; Linux x86_64) AppleWebKit/537.36 (KHTML, like Gecko) draw.io/23.0.2 Chrome/120.0.6099.109 Electron/28.1.0 Safari/537.36" etag="er_aNJvBKA3D0_abar89" version="23.0.2" type="device">
  <diagram name="Page-1" id="LaEfMbNnEONaH0ivwo33">
    <mxGraphModel dx="640" dy="1003" grid="1" gridSize="10" guides="1" tooltips="1" connect="1" arrows="1" fold="1" page="1" pageScale="1" pageWidth="850" pageHeight="1100" math="0" shadow="0">
      <root>
        <mxCell id="0" />
        <mxCell id="1" parent="0" />
        <mxCell id="pPhE4mCixYenFUnXaRjR-12" value="User Process" style="rounded=1;whiteSpace=wrap;html=1;horizontal=1;verticalAlign=top;fillColor=#E6E6E6;strokeWidth=2;fontSize=14;" vertex="1" parent="1">
          <mxGeometry x="100" y="270" width="240" height="110" as="geometry" />
        </mxCell>
        <mxCell id="pPhE4mCixYenFUnXaRjR-2" value="" style="ellipse;whiteSpace=wrap;html=1;fillColor=#d5e8d4;strokeColor=#82b366;strokeWidth=2;fontSize=14;" vertex="1" parent="1">
          <mxGeometry x="110" y="300" width="40" height="40" as="geometry" />
        </mxCell>
        <mxCell id="pPhE4mCixYenFUnXaRjR-3" value="" style="ellipse;whiteSpace=wrap;html=1;fillColor=#f8cecc;strokeColor=#b85450;strokeWidth=2;fontSize=14;" vertex="1" parent="1">
          <mxGeometry x="170" y="300" width="40" height="40" as="geometry" />
        </mxCell>
        <mxCell id="pPhE4mCixYenFUnXaRjR-4" value="" style="ellipse;whiteSpace=wrap;html=1;fillColor=#e1d5e7;strokeColor=#9673a6;strokeWidth=2;fontSize=14;" vertex="1" parent="1">
          <mxGeometry x="230" y="300" width="40" height="40" as="geometry" />
        </mxCell>
        <mxCell id="pPhE4mCixYenFUnXaRjR-5" value="" style="ellipse;whiteSpace=wrap;html=1;fillColor=#dae8fc;strokeColor=#6c8ebf;strokeWidth=2;fontSize=14;" vertex="1" parent="1">
          <mxGeometry x="290" y="300" width="40" height="40" as="geometry" />
        </mxCell>
        <mxCell id="pPhE4mCixYenFUnXaRjR-8" value="" style="shape=image;html=1;verticalAlign=top;verticalLabelPosition=bottom;labelBackgroundColor=#ffffff;imageAspect=0;aspect=fixed;image=https://cdn0.iconfinder.com/data/icons/users-android-l-lollipop-icon-pack/24/user-128.png;fillColor=none;fontSize=14;imageBackground=none;strokeWidth=2;" vertex="1" parent="1">
          <mxGeometry x="110" y="300" width="40" height="40" as="geometry" />
        </mxCell>
        <mxCell id="pPhE4mCixYenFUnXaRjR-9" value="" style="shape=image;html=1;verticalAlign=top;verticalLabelPosition=bottom;labelBackgroundColor=#ffffff;imageAspect=0;aspect=fixed;image=https://cdn0.iconfinder.com/data/icons/users-android-l-lollipop-icon-pack/24/user-128.png;fillColor=none;fontSize=14;imageBackground=none;strokeWidth=2;" vertex="1" parent="1">
          <mxGeometry x="170" y="300" width="40" height="40" as="geometry" />
        </mxCell>
        <mxCell id="pPhE4mCixYenFUnXaRjR-10" value="" style="shape=image;html=1;verticalAlign=top;verticalLabelPosition=bottom;labelBackgroundColor=#ffffff;imageAspect=0;aspect=fixed;image=https://cdn0.iconfinder.com/data/icons/users-android-l-lollipop-icon-pack/24/user-128.png;fillColor=none;fontSize=14;imageBackground=none;strokeWidth=2;" vertex="1" parent="1">
          <mxGeometry x="230" y="300" width="40" height="40" as="geometry" />
        </mxCell>
        <mxCell id="pPhE4mCixYenFUnXaRjR-11" value="" style="shape=image;html=1;verticalAlign=top;verticalLabelPosition=bottom;labelBackgroundColor=#ffffff;imageAspect=0;aspect=fixed;image=https://cdn0.iconfinder.com/data/icons/users-android-l-lollipop-icon-pack/24/user-128.png;fillColor=none;fontSize=14;imageBackground=none;strokeWidth=2;" vertex="1" parent="1">
          <mxGeometry x="290" y="300" width="40" height="40" as="geometry" />
        </mxCell>
        <mxCell id="pPhE4mCixYenFUnXaRjR-13" value="" style="endArrow=none;dashed=1;html=1;dashPattern=1 3;strokeWidth=2;rounded=0;fontSize=14;" edge="1" parent="1">
          <mxGeometry width="50" height="50" relative="1" as="geometry">
            <mxPoint x="160" y="360" as="sourcePoint" />
            <mxPoint x="160" y="300" as="targetPoint" />
          </mxGeometry>
        </mxCell>
        <mxCell id="pPhE4mCixYenFUnXaRjR-14" value="" style="endArrow=none;dashed=1;html=1;dashPattern=1 3;strokeWidth=2;rounded=0;fontSize=14;" edge="1" parent="1">
          <mxGeometry width="50" height="50" relative="1" as="geometry">
            <mxPoint x="219.70999999999998" y="360" as="sourcePoint" />
            <mxPoint x="219.70999999999998" y="300" as="targetPoint" />
          </mxGeometry>
        </mxCell>
        <mxCell id="pPhE4mCixYenFUnXaRjR-15" value="" style="endArrow=none;dashed=1;html=1;dashPattern=1 3;strokeWidth=2;rounded=0;fontSize=14;" edge="1" parent="1">
          <mxGeometry width="50" height="50" relative="1" as="geometry">
            <mxPoint x="280" y="360" as="sourcePoint" />
            <mxPoint x="280" y="300" as="targetPoint" />
          </mxGeometry>
        </mxCell>
        <mxCell id="pPhE4mCixYenFUnXaRjR-1" value="Virtual memory" style="rounded=1;whiteSpace=wrap;html=1;strokeWidth=2;fontSize=14;" vertex="1" parent="1">
          <mxGeometry x="110" y="350" width="220" height="20" as="geometry" />
        </mxCell>
        <mxCell id="pPhE4mCixYenFUnXaRjR-16" value="Operating System" style="rounded=1;whiteSpace=wrap;html=1;fillColor=#E6E6E6;strokeWidth=2;fontSize=14;" vertex="1" parent="1">
          <mxGeometry x="100" y="420" width="120" height="40" as="geometry" />
        </mxCell>
        <mxCell id="pPhE4mCixYenFUnXaRjR-17" value="Hardware&lt;br style=&quot;font-size: 14px;&quot;&gt;(core + memory)" style="rounded=1;whiteSpace=wrap;html=1;fillColor=#E6E6E6;strokeWidth=2;fontSize=14;" vertex="1" parent="1">
          <mxGeometry x="100" y="500" width="240" height="40" as="geometry" />
        </mxCell>
        <mxCell id="pPhE4mCixYenFUnXaRjR-18" value="" style="endArrow=classic;startArrow=classic;html=1;rounded=0;entryX=0.25;entryY=1;entryDx=0;entryDy=0;exitX=0.5;exitY=0;exitDx=0;exitDy=0;strokeWidth=2;fontSize=14;" edge="1" parent="1" source="pPhE4mCixYenFUnXaRjR-16" target="pPhE4mCixYenFUnXaRjR-12">
          <mxGeometry width="50" height="50" relative="1" as="geometry">
            <mxPoint x="154.70999999999998" y="420" as="sourcePoint" />
            <mxPoint x="154.70999999999998" y="380" as="targetPoint" />
          </mxGeometry>
        </mxCell>
        <mxCell id="pPhE4mCixYenFUnXaRjR-19" value="" style="endArrow=classic;startArrow=classic;html=1;rounded=0;entryX=0.5;entryY=1;entryDx=0;entryDy=0;exitX=0.25;exitY=0;exitDx=0;exitDy=0;strokeWidth=2;fontSize=14;" edge="1" parent="1" source="pPhE4mCixYenFUnXaRjR-17" target="pPhE4mCixYenFUnXaRjR-16">
          <mxGeometry width="50" height="50" relative="1" as="geometry">
            <mxPoint x="150" y="490" as="sourcePoint" />
            <mxPoint x="220" y="470" as="targetPoint" />
          </mxGeometry>
        </mxCell>
        <mxCell id="pPhE4mCixYenFUnXaRjR-20" value="" style="endArrow=classic;startArrow=classic;html=1;rounded=0;exitX=0.75;exitY=0;exitDx=0;exitDy=0;entryX=0.75;entryY=1;entryDx=0;entryDy=0;strokeWidth=2;fontSize=14;" edge="1" parent="1" source="pPhE4mCixYenFUnXaRjR-17" target="pPhE4mCixYenFUnXaRjR-12">
          <mxGeometry width="50" height="50" relative="1" as="geometry">
            <mxPoint x="280" y="420" as="sourcePoint" />
            <mxPoint x="280" y="380" as="targetPoint" />
          </mxGeometry>
        </mxCell>
        <mxCell id="pPhE4mCixYenFUnXaRjR-96" value="" style="group" vertex="1" connectable="0" parent="1">
          <mxGeometry x="400" y="280" width="360" height="240" as="geometry" />
        </mxCell>
        <mxCell id="pPhE4mCixYenFUnXaRjR-22" value="User Process" style="rounded=1;whiteSpace=wrap;html=1;horizontal=1;verticalAlign=top;fillColor=#E6E6E6;strokeWidth=2;fontSize=14;" vertex="1" parent="pPhE4mCixYenFUnXaRjR-96">
          <mxGeometry width="360" height="80" as="geometry" />
        </mxCell>
        <mxCell id="pPhE4mCixYenFUnXaRjR-35" value="Operating System" style="rounded=1;whiteSpace=wrap;html=1;fillColor=#E6E6E6;strokeWidth=2;fontSize=14;" vertex="1" parent="pPhE4mCixYenFUnXaRjR-96">
          <mxGeometry y="120" width="180" height="40" as="geometry" />
        </mxCell>
        <mxCell id="pPhE4mCixYenFUnXaRjR-36" value="Hardware&lt;br style=&quot;font-size: 14px;&quot;&gt;(core + memory)" style="rounded=1;whiteSpace=wrap;html=1;fillColor=#E6E6E6;strokeWidth=2;fontSize=14;" vertex="1" parent="pPhE4mCixYenFUnXaRjR-96">
          <mxGeometry y="200" width="360" height="40" as="geometry" />
        </mxCell>
        <mxCell id="pPhE4mCixYenFUnXaRjR-37" value="" style="endArrow=classic;startArrow=classic;html=1;rounded=0;entryX=0.25;entryY=1;entryDx=0;entryDy=0;exitX=0.5;exitY=0;exitDx=0;exitDy=0;strokeWidth=2;fontSize=14;" edge="1" source="pPhE4mCixYenFUnXaRjR-35" target="pPhE4mCixYenFUnXaRjR-22" parent="pPhE4mCixYenFUnXaRjR-96">
          <mxGeometry width="50" height="50" relative="1" as="geometry">
            <mxPoint x="74.71000000000004" y="120" as="sourcePoint" />
            <mxPoint x="74.71000000000004" y="80" as="targetPoint" />
          </mxGeometry>
        </mxCell>
        <mxCell id="pPhE4mCixYenFUnXaRjR-38" value="" style="endArrow=classic;startArrow=classic;html=1;rounded=0;entryX=0.5;entryY=1;entryDx=0;entryDy=0;exitX=0.25;exitY=0;exitDx=0;exitDy=0;strokeWidth=2;fontSize=14;" edge="1" source="pPhE4mCixYenFUnXaRjR-36" target="pPhE4mCixYenFUnXaRjR-35" parent="pPhE4mCixYenFUnXaRjR-96">
          <mxGeometry width="50" height="50" relative="1" as="geometry">
            <mxPoint x="70" y="190" as="sourcePoint" />
            <mxPoint x="140" y="170" as="targetPoint" />
          </mxGeometry>
        </mxCell>
        <mxCell id="pPhE4mCixYenFUnXaRjR-39" value="" style="endArrow=classic;startArrow=classic;html=1;rounded=0;exitX=0.75;exitY=0;exitDx=0;exitDy=0;entryX=0.75;entryY=1;entryDx=0;entryDy=0;strokeWidth=2;fontSize=14;" edge="1" source="pPhE4mCixYenFUnXaRjR-36" target="pPhE4mCixYenFUnXaRjR-22" parent="pPhE4mCixYenFUnXaRjR-96">
          <mxGeometry width="50" height="50" relative="1" as="geometry">
            <mxPoint x="200" y="120" as="sourcePoint" />
            <mxPoint x="200" y="80" as="targetPoint" />
          </mxGeometry>
        </mxCell>
        <mxCell id="pPhE4mCixYenFUnXaRjR-40" value="System call" style="text;html=1;strokeColor=none;fillColor=none;align=center;verticalAlign=middle;whiteSpace=wrap;rounded=0;fontSize=14;strokeWidth=2;" vertex="1" parent="pPhE4mCixYenFUnXaRjR-96">
          <mxGeometry y="80" width="80" height="40" as="geometry" />
        </mxCell>
        <mxCell id="pPhE4mCixYenFUnXaRjR-41" value="" style="endArrow=classic;html=1;rounded=0;entryX=0.75;entryY=1;entryDx=0;entryDy=0;strokeWidth=2;fontSize=14;" edge="1" parent="pPhE4mCixYenFUnXaRjR-96">
          <mxGeometry width="50" height="50" relative="1" as="geometry">
            <mxPoint x="240" y="80" as="sourcePoint" />
            <mxPoint x="150" y="160" as="targetPoint" />
            <Array as="points">
              <mxPoint x="240" y="190" />
              <mxPoint x="150" y="190" />
            </Array>
          </mxGeometry>
        </mxCell>
        <mxCell id="pPhE4mCixYenFUnXaRjR-65" value="" style="group;fontSize=14;strokeWidth=2;" vertex="1" connectable="0" parent="pPhE4mCixYenFUnXaRjR-96">
          <mxGeometry x="70" y="30" width="40" height="40" as="geometry" />
        </mxCell>
        <mxCell id="pPhE4mCixYenFUnXaRjR-44" value="" style="rounded=1;whiteSpace=wrap;html=1;fontSize=14;strokeWidth=2;" vertex="1" parent="pPhE4mCixYenFUnXaRjR-65">
          <mxGeometry x="6.666666666666666" y="6.666666666666666" width="26.666666666666664" height="26.666666666666664" as="geometry" />
        </mxCell>
        <mxCell id="pPhE4mCixYenFUnXaRjR-45" value="" style="endArrow=none;html=1;rounded=0;fontSize=14;strokeWidth=2;" edge="1" parent="pPhE4mCixYenFUnXaRjR-65">
          <mxGeometry width="50" height="50" relative="1" as="geometry">
            <mxPoint x="13.333333333333332" y="40" as="sourcePoint" />
            <mxPoint x="13.333333333333332" y="33.33333333333333" as="targetPoint" />
          </mxGeometry>
        </mxCell>
        <mxCell id="pPhE4mCixYenFUnXaRjR-46" value="" style="endArrow=none;html=1;rounded=0;fontSize=14;strokeWidth=2;" edge="1" parent="pPhE4mCixYenFUnXaRjR-65">
          <mxGeometry width="50" height="50" relative="1" as="geometry">
            <mxPoint x="13.333333333333332" y="6.666666666666666" as="sourcePoint" />
            <mxPoint x="13.333333333333332" as="targetPoint" />
          </mxGeometry>
        </mxCell>
        <mxCell id="pPhE4mCixYenFUnXaRjR-47" value="" style="endArrow=none;html=1;rounded=0;fontSize=14;strokeWidth=2;" edge="1" parent="pPhE4mCixYenFUnXaRjR-65">
          <mxGeometry width="50" height="50" relative="1" as="geometry">
            <mxPoint x="19.873333333333296" y="40" as="sourcePoint" />
            <mxPoint x="19.873333333333296" y="33.33333333333333" as="targetPoint" />
          </mxGeometry>
        </mxCell>
        <mxCell id="pPhE4mCixYenFUnXaRjR-48" value="" style="endArrow=none;html=1;rounded=0;fontSize=14;strokeWidth=2;" edge="1" parent="pPhE4mCixYenFUnXaRjR-65">
          <mxGeometry width="50" height="50" relative="1" as="geometry">
            <mxPoint x="19.873333333333296" y="6.666666666666666" as="sourcePoint" />
            <mxPoint x="19.873333333333296" as="targetPoint" />
          </mxGeometry>
        </mxCell>
        <mxCell id="pPhE4mCixYenFUnXaRjR-49" value="" style="endArrow=none;html=1;rounded=0;fontSize=14;strokeWidth=2;" edge="1" parent="pPhE4mCixYenFUnXaRjR-65">
          <mxGeometry width="50" height="50" relative="1" as="geometry">
            <mxPoint x="26.539999999999964" y="40" as="sourcePoint" />
            <mxPoint x="26.539999999999964" y="33.33333333333333" as="targetPoint" />
          </mxGeometry>
        </mxCell>
        <mxCell id="pPhE4mCixYenFUnXaRjR-50" value="" style="endArrow=none;html=1;rounded=0;fontSize=14;strokeWidth=2;" edge="1" parent="pPhE4mCixYenFUnXaRjR-65">
          <mxGeometry width="50" height="50" relative="1" as="geometry">
            <mxPoint x="33.33333333333333" y="13.333333333333332" as="sourcePoint" />
            <mxPoint x="40" y="13.333333333333332" as="targetPoint" />
          </mxGeometry>
        </mxCell>
        <mxCell id="pPhE4mCixYenFUnXaRjR-57" value="" style="endArrow=none;html=1;rounded=0;fontSize=14;strokeWidth=2;" edge="1" parent="pPhE4mCixYenFUnXaRjR-65">
          <mxGeometry width="50" height="50" relative="1" as="geometry">
            <mxPoint y="13.333333333333332" as="sourcePoint" />
            <mxPoint x="6.666666666666666" y="13.333333333333332" as="targetPoint" />
          </mxGeometry>
        </mxCell>
        <mxCell id="pPhE4mCixYenFUnXaRjR-59" value="" style="endArrow=none;html=1;rounded=0;fontSize=14;strokeWidth=2;" edge="1" parent="pPhE4mCixYenFUnXaRjR-65">
          <mxGeometry width="50" height="50" relative="1" as="geometry">
            <mxPoint x="33.33333333333333" y="19.933333333333316" as="sourcePoint" />
            <mxPoint x="40" y="19.933333333333316" as="targetPoint" />
          </mxGeometry>
        </mxCell>
        <mxCell id="pPhE4mCixYenFUnXaRjR-60" value="" style="endArrow=none;html=1;rounded=0;fontSize=14;strokeWidth=2;" edge="1" parent="pPhE4mCixYenFUnXaRjR-65">
          <mxGeometry width="50" height="50" relative="1" as="geometry">
            <mxPoint y="19.933333333333316" as="sourcePoint" />
            <mxPoint x="6.666666666666666" y="19.933333333333316" as="targetPoint" />
          </mxGeometry>
        </mxCell>
        <mxCell id="pPhE4mCixYenFUnXaRjR-61" value="" style="endArrow=none;html=1;rounded=0;fontSize=14;strokeWidth=2;" edge="1" parent="pPhE4mCixYenFUnXaRjR-65">
          <mxGeometry width="50" height="50" relative="1" as="geometry">
            <mxPoint x="33.33333333333333" y="26.599999999999984" as="sourcePoint" />
            <mxPoint x="40" y="26.599999999999984" as="targetPoint" />
          </mxGeometry>
        </mxCell>
        <mxCell id="pPhE4mCixYenFUnXaRjR-62" value="" style="endArrow=none;html=1;rounded=0;fontSize=14;strokeWidth=2;" edge="1" parent="pPhE4mCixYenFUnXaRjR-65">
          <mxGeometry width="50" height="50" relative="1" as="geometry">
            <mxPoint y="26.599999999999984" as="sourcePoint" />
            <mxPoint x="6.666666666666666" y="26.599999999999984" as="targetPoint" />
          </mxGeometry>
        </mxCell>
        <mxCell id="pPhE4mCixYenFUnXaRjR-64" value="" style="endArrow=none;html=1;rounded=0;fontSize=14;strokeWidth=2;" edge="1" parent="pPhE4mCixYenFUnXaRjR-65">
          <mxGeometry width="50" height="50" relative="1" as="geometry">
            <mxPoint x="26.539999999999964" y="6.666666666666666" as="sourcePoint" />
            <mxPoint x="26.539999999999964" as="targetPoint" />
          </mxGeometry>
        </mxCell>
        <mxCell id="pPhE4mCixYenFUnXaRjR-66" value="" style="group;fontSize=14;strokeWidth=2;" vertex="1" connectable="0" parent="pPhE4mCixYenFUnXaRjR-96">
          <mxGeometry x="160" y="30" width="40" height="40" as="geometry" />
        </mxCell>
        <mxCell id="pPhE4mCixYenFUnXaRjR-67" value="" style="rounded=1;whiteSpace=wrap;html=1;fontSize=14;strokeWidth=2;" vertex="1" parent="pPhE4mCixYenFUnXaRjR-66">
          <mxGeometry x="6.666666666666666" y="6.666666666666666" width="26.666666666666664" height="26.666666666666664" as="geometry" />
        </mxCell>
        <mxCell id="pPhE4mCixYenFUnXaRjR-68" value="" style="endArrow=none;html=1;rounded=0;fontSize=14;strokeWidth=2;" edge="1" parent="pPhE4mCixYenFUnXaRjR-66">
          <mxGeometry width="50" height="50" relative="1" as="geometry">
            <mxPoint x="13.333333333333332" y="40" as="sourcePoint" />
            <mxPoint x="13.333333333333332" y="33.33333333333333" as="targetPoint" />
          </mxGeometry>
        </mxCell>
        <mxCell id="pPhE4mCixYenFUnXaRjR-69" value="" style="endArrow=none;html=1;rounded=0;fontSize=14;strokeWidth=2;" edge="1" parent="pPhE4mCixYenFUnXaRjR-66">
          <mxGeometry width="50" height="50" relative="1" as="geometry">
            <mxPoint x="13.333333333333332" y="6.666666666666666" as="sourcePoint" />
            <mxPoint x="13.333333333333332" as="targetPoint" />
          </mxGeometry>
        </mxCell>
        <mxCell id="pPhE4mCixYenFUnXaRjR-70" value="" style="endArrow=none;html=1;rounded=0;fontSize=14;strokeWidth=2;" edge="1" parent="pPhE4mCixYenFUnXaRjR-66">
          <mxGeometry width="50" height="50" relative="1" as="geometry">
            <mxPoint x="19.873333333333296" y="40" as="sourcePoint" />
            <mxPoint x="19.873333333333296" y="33.33333333333333" as="targetPoint" />
          </mxGeometry>
        </mxCell>
        <mxCell id="pPhE4mCixYenFUnXaRjR-71" value="" style="endArrow=none;html=1;rounded=0;fontSize=14;strokeWidth=2;" edge="1" parent="pPhE4mCixYenFUnXaRjR-66">
          <mxGeometry width="50" height="50" relative="1" as="geometry">
            <mxPoint x="19.873333333333296" y="6.666666666666666" as="sourcePoint" />
            <mxPoint x="19.873333333333296" as="targetPoint" />
          </mxGeometry>
        </mxCell>
        <mxCell id="pPhE4mCixYenFUnXaRjR-72" value="" style="endArrow=none;html=1;rounded=0;fontSize=14;strokeWidth=2;" edge="1" parent="pPhE4mCixYenFUnXaRjR-66">
          <mxGeometry width="50" height="50" relative="1" as="geometry">
            <mxPoint x="26.539999999999964" y="40" as="sourcePoint" />
            <mxPoint x="26.539999999999964" y="33.33333333333333" as="targetPoint" />
          </mxGeometry>
        </mxCell>
        <mxCell id="pPhE4mCixYenFUnXaRjR-73" value="" style="endArrow=none;html=1;rounded=0;fontSize=14;strokeWidth=2;" edge="1" parent="pPhE4mCixYenFUnXaRjR-66">
          <mxGeometry width="50" height="50" relative="1" as="geometry">
            <mxPoint x="33.33333333333333" y="13.333333333333332" as="sourcePoint" />
            <mxPoint x="40" y="13.333333333333332" as="targetPoint" />
          </mxGeometry>
        </mxCell>
        <mxCell id="pPhE4mCixYenFUnXaRjR-74" value="" style="endArrow=none;html=1;rounded=0;fontSize=14;strokeWidth=2;" edge="1" parent="pPhE4mCixYenFUnXaRjR-66">
          <mxGeometry width="50" height="50" relative="1" as="geometry">
            <mxPoint y="13.333333333333332" as="sourcePoint" />
            <mxPoint x="6.666666666666666" y="13.333333333333332" as="targetPoint" />
          </mxGeometry>
        </mxCell>
        <mxCell id="pPhE4mCixYenFUnXaRjR-75" value="" style="endArrow=none;html=1;rounded=0;fontSize=14;strokeWidth=2;" edge="1" parent="pPhE4mCixYenFUnXaRjR-66">
          <mxGeometry width="50" height="50" relative="1" as="geometry">
            <mxPoint x="33.33333333333333" y="19.933333333333316" as="sourcePoint" />
            <mxPoint x="40" y="19.933333333333316" as="targetPoint" />
          </mxGeometry>
        </mxCell>
        <mxCell id="pPhE4mCixYenFUnXaRjR-76" value="" style="endArrow=none;html=1;rounded=0;fontSize=14;strokeWidth=2;" edge="1" parent="pPhE4mCixYenFUnXaRjR-66">
          <mxGeometry width="50" height="50" relative="1" as="geometry">
            <mxPoint y="19.933333333333316" as="sourcePoint" />
            <mxPoint x="6.666666666666666" y="19.933333333333316" as="targetPoint" />
          </mxGeometry>
        </mxCell>
        <mxCell id="pPhE4mCixYenFUnXaRjR-77" value="" style="endArrow=none;html=1;rounded=0;fontSize=14;strokeWidth=2;" edge="1" parent="pPhE4mCixYenFUnXaRjR-66">
          <mxGeometry width="50" height="50" relative="1" as="geometry">
            <mxPoint x="33.33333333333333" y="26.599999999999984" as="sourcePoint" />
            <mxPoint x="40" y="26.599999999999984" as="targetPoint" />
          </mxGeometry>
        </mxCell>
        <mxCell id="pPhE4mCixYenFUnXaRjR-78" value="" style="endArrow=none;html=1;rounded=0;fontSize=14;strokeWidth=2;" edge="1" parent="pPhE4mCixYenFUnXaRjR-66">
          <mxGeometry width="50" height="50" relative="1" as="geometry">
            <mxPoint y="26.599999999999984" as="sourcePoint" />
            <mxPoint x="6.666666666666666" y="26.599999999999984" as="targetPoint" />
          </mxGeometry>
        </mxCell>
        <mxCell id="pPhE4mCixYenFUnXaRjR-79" value="" style="endArrow=none;html=1;rounded=0;fontSize=14;strokeWidth=2;" edge="1" parent="pPhE4mCixYenFUnXaRjR-66">
          <mxGeometry width="50" height="50" relative="1" as="geometry">
            <mxPoint x="26.539999999999964" y="6.666666666666666" as="sourcePoint" />
            <mxPoint x="26.539999999999964" as="targetPoint" />
          </mxGeometry>
        </mxCell>
        <mxCell id="pPhE4mCixYenFUnXaRjR-80" value="" style="group;fontSize=14;strokeWidth=2;" vertex="1" connectable="0" parent="pPhE4mCixYenFUnXaRjR-96">
          <mxGeometry x="250" y="30" width="40" height="40" as="geometry" />
        </mxCell>
        <mxCell id="pPhE4mCixYenFUnXaRjR-81" value="" style="rounded=1;whiteSpace=wrap;html=1;fontSize=14;strokeWidth=2;" vertex="1" parent="pPhE4mCixYenFUnXaRjR-80">
          <mxGeometry x="6.666666666666666" y="6.666666666666666" width="26.666666666666664" height="26.666666666666664" as="geometry" />
        </mxCell>
        <mxCell id="pPhE4mCixYenFUnXaRjR-82" value="" style="endArrow=none;html=1;rounded=0;fontSize=14;strokeWidth=2;" edge="1" parent="pPhE4mCixYenFUnXaRjR-80">
          <mxGeometry width="50" height="50" relative="1" as="geometry">
            <mxPoint x="13.333333333333332" y="40" as="sourcePoint" />
            <mxPoint x="13.333333333333332" y="33.33333333333333" as="targetPoint" />
          </mxGeometry>
        </mxCell>
        <mxCell id="pPhE4mCixYenFUnXaRjR-83" value="" style="endArrow=none;html=1;rounded=0;fontSize=14;strokeWidth=2;" edge="1" parent="pPhE4mCixYenFUnXaRjR-80">
          <mxGeometry width="50" height="50" relative="1" as="geometry">
            <mxPoint x="13.333333333333332" y="6.666666666666666" as="sourcePoint" />
            <mxPoint x="13.333333333333332" as="targetPoint" />
          </mxGeometry>
        </mxCell>
        <mxCell id="pPhE4mCixYenFUnXaRjR-84" value="" style="endArrow=none;html=1;rounded=0;fontSize=14;strokeWidth=2;" edge="1" parent="pPhE4mCixYenFUnXaRjR-80">
          <mxGeometry width="50" height="50" relative="1" as="geometry">
            <mxPoint x="19.873333333333296" y="40" as="sourcePoint" />
            <mxPoint x="19.873333333333296" y="33.33333333333333" as="targetPoint" />
          </mxGeometry>
        </mxCell>
        <mxCell id="pPhE4mCixYenFUnXaRjR-85" value="" style="endArrow=none;html=1;rounded=0;fontSize=14;strokeWidth=2;" edge="1" parent="pPhE4mCixYenFUnXaRjR-80">
          <mxGeometry width="50" height="50" relative="1" as="geometry">
            <mxPoint x="19.873333333333296" y="6.666666666666666" as="sourcePoint" />
            <mxPoint x="19.873333333333296" as="targetPoint" />
          </mxGeometry>
        </mxCell>
        <mxCell id="pPhE4mCixYenFUnXaRjR-86" value="" style="endArrow=none;html=1;rounded=0;fontSize=14;strokeWidth=2;" edge="1" parent="pPhE4mCixYenFUnXaRjR-80">
          <mxGeometry width="50" height="50" relative="1" as="geometry">
            <mxPoint x="26.539999999999964" y="40" as="sourcePoint" />
            <mxPoint x="26.539999999999964" y="33.33333333333333" as="targetPoint" />
          </mxGeometry>
        </mxCell>
        <mxCell id="pPhE4mCixYenFUnXaRjR-87" value="" style="endArrow=none;html=1;rounded=0;fontSize=14;strokeWidth=2;" edge="1" parent="pPhE4mCixYenFUnXaRjR-80">
          <mxGeometry width="50" height="50" relative="1" as="geometry">
            <mxPoint x="33.33333333333333" y="13.333333333333332" as="sourcePoint" />
            <mxPoint x="40" y="13.333333333333332" as="targetPoint" />
          </mxGeometry>
        </mxCell>
        <mxCell id="pPhE4mCixYenFUnXaRjR-88" value="" style="endArrow=none;html=1;rounded=0;fontSize=14;strokeWidth=2;" edge="1" parent="pPhE4mCixYenFUnXaRjR-80">
          <mxGeometry width="50" height="50" relative="1" as="geometry">
            <mxPoint y="13.333333333333332" as="sourcePoint" />
            <mxPoint x="6.666666666666666" y="13.333333333333332" as="targetPoint" />
          </mxGeometry>
        </mxCell>
        <mxCell id="pPhE4mCixYenFUnXaRjR-89" value="" style="endArrow=none;html=1;rounded=0;fontSize=14;strokeWidth=2;" edge="1" parent="pPhE4mCixYenFUnXaRjR-80">
          <mxGeometry width="50" height="50" relative="1" as="geometry">
            <mxPoint x="33.33333333333333" y="19.933333333333316" as="sourcePoint" />
            <mxPoint x="40" y="19.933333333333316" as="targetPoint" />
          </mxGeometry>
        </mxCell>
        <mxCell id="pPhE4mCixYenFUnXaRjR-90" value="" style="endArrow=none;html=1;rounded=0;fontSize=14;strokeWidth=2;" edge="1" parent="pPhE4mCixYenFUnXaRjR-80">
          <mxGeometry width="50" height="50" relative="1" as="geometry">
            <mxPoint y="19.933333333333316" as="sourcePoint" />
            <mxPoint x="6.666666666666666" y="19.933333333333316" as="targetPoint" />
          </mxGeometry>
        </mxCell>
        <mxCell id="pPhE4mCixYenFUnXaRjR-91" value="" style="endArrow=none;html=1;rounded=0;fontSize=14;strokeWidth=2;" edge="1" parent="pPhE4mCixYenFUnXaRjR-80">
          <mxGeometry width="50" height="50" relative="1" as="geometry">
            <mxPoint x="33.33333333333333" y="26.599999999999984" as="sourcePoint" />
            <mxPoint x="40" y="26.599999999999984" as="targetPoint" />
          </mxGeometry>
        </mxCell>
        <mxCell id="pPhE4mCixYenFUnXaRjR-92" value="" style="endArrow=none;html=1;rounded=0;fontSize=14;strokeWidth=2;" edge="1" parent="pPhE4mCixYenFUnXaRjR-80">
          <mxGeometry width="50" height="50" relative="1" as="geometry">
            <mxPoint y="26.599999999999984" as="sourcePoint" />
            <mxPoint x="6.666666666666666" y="26.599999999999984" as="targetPoint" />
          </mxGeometry>
        </mxCell>
        <mxCell id="pPhE4mCixYenFUnXaRjR-93" value="" style="endArrow=none;html=1;rounded=0;fontSize=14;strokeWidth=2;" edge="1" parent="pPhE4mCixYenFUnXaRjR-80">
          <mxGeometry width="50" height="50" relative="1" as="geometry">
            <mxPoint x="26.539999999999964" y="6.666666666666666" as="sourcePoint" />
            <mxPoint x="26.539999999999964" as="targetPoint" />
          </mxGeometry>
        </mxCell>
        <mxCell id="pPhE4mCixYenFUnXaRjR-95" value="&lt;span style=&quot;color: rgb(0, 0, 0); font-family: Helvetica; font-size: 14px; font-style: normal; font-variant-ligatures: normal; font-variant-caps: normal; font-weight: 400; letter-spacing: normal; orphans: 2; text-align: center; text-indent: 0px; text-transform: none; widows: 2; word-spacing: 0px; -webkit-text-stroke-width: 0px; background-color: rgb(251, 251, 251); text-decoration-thickness: initial; text-decoration-style: initial; text-decoration-color: initial; float: none; display: inline !important;&quot;&gt;Argument&lt;/span&gt;&lt;br style=&quot;border-color: var(--border-color); color: rgb(0, 0, 0); font-family: Helvetica; font-size: 14px; font-style: normal; font-variant-ligatures: normal; font-variant-caps: normal; font-weight: 400; letter-spacing: normal; orphans: 2; text-align: center; text-indent: 0px; text-transform: none; widows: 2; word-spacing: 0px; -webkit-text-stroke-width: 0px; background-color: rgb(251, 251, 251); text-decoration-thickness: initial; text-decoration-style: initial; text-decoration-color: initial;&quot;&gt;&lt;span style=&quot;color: rgb(0, 0, 0); font-family: Helvetica; font-size: 14px; font-style: normal; font-variant-ligatures: normal; font-variant-caps: normal; font-weight: 400; letter-spacing: normal; orphans: 2; text-align: center; text-indent: 0px; text-transform: none; widows: 2; word-spacing: 0px; -webkit-text-stroke-width: 0px; background-color: rgb(251, 251, 251); text-decoration-thickness: initial; text-decoration-style: initial; text-decoration-color: initial; float: none; display: inline !important;&quot;&gt;by-reference&lt;/span&gt;" style="text;html=1;strokeColor=none;fillColor=none;align=center;verticalAlign=middle;whiteSpace=wrap;rounded=0;rotation=90;fontSize=14;strokeWidth=2;" vertex="1" parent="pPhE4mCixYenFUnXaRjR-96">
          <mxGeometry x="175" y="125" width="90" height="40" as="geometry" />
        </mxCell>
      </root>
    </mxGraphModel>
  </diagram>
</mxfile>
